<?xml version="1.0" encoding="utf-8"?>
<!-- Generator: Adobe Illustrator 23.0.3, SVG Export Plug-In . SVG Version: 6.00 Build 0)  -->
<svg version="1.1" id="Layer_1" xmlns="http://www.w3.org/2000/svg" xmlns:xlink="http://www.w3.org/1999/xlink" x="0px" y="0px"
	 viewBox="0 0 612 792" style="enable-background:new 0 0 612 792;" xml:space="preserve">
<style type="text/css">
	.st0{fill:#808080;}
	.st1{fill:#FF4612;}
	.st2{fill:#EFC431;}
	.st3{fill:#50CE49;}
</style>
<g>
	<path class="st0" d="M452.9,439.6c-21.6,0.2-27.2,0.2-56.5,0.4c7.9,42.3,19,66.2,31.3,67.2C439.7,508.2,446.7,489.9,452.9,439.6
		L452.9,439.6z M386.7,440.1c-9.8,0.1-18,0.2-34.2,0.3c-8.9,0.1-14.1,0.2-21.3,0.2c6.1,47.3,13,64.6,24.8,63.7
		C368,503.4,378.9,480.6,386.7,440.1L386.7,440.1z M264.5,441.5c-11.1,0.2-21.7,0.4-36.8,0.7c-7.4,0.2-14,0.3-20.2,0.4
		c7.9,43,19.1,67.3,31.5,68.3C251.2,512,258.2,493.2,264.5,441.5L264.5,441.5z M142.3,442.1c6.2,49.1,13.1,67,25.1,66.1
		c12.1-1,23-24.2,30.9-65.3c-24.7,0.4-39.1,0.3-44.2-0.2c-2-0.2-7.1-0.4-11.4-0.5C142.6,442.1,142.4,442.1,142.3,442.1L142.3,442.1z
		"/>
	<path class="st0" d="M132.5,194.1c-30.8-0.5-54.4,25.9-51.8,58.7c0,6.8,3.4,25,5.9,32c2.8,7.7,8,20,16.4,38.9
		c1.2,2.7,2.2,4.8,3.2,7.1c2-7,4.4-13.9,7.4-20.6c2-4.6,6.1-12.3,9.3-18.1c-14.4-27.3-24.4-59.9,8.3-71.2c6-1.1,9.6-1,20.9,0.5
		c11.7,1.6,16.5,0.5,17.8-4c1.4-4.5-2.2-10.3-10.1-16.1C150.4,196.6,141.2,194.3,132.5,194.1L132.5,194.1z"/>
	<path class="st1" d="M266.3,164.3c-6.8,0.1-13,4.3-15.4,10.8c4.6,1.8,8.7,6.5,7.2,13.6c0.7,1.1,1.4,2.3,2.2,3.4
		c0.7,0.8,5.1,4.7,5.5,4.7c13.4,0.8,13.5-13.9,25.3-24.7c-2-1.9-4.6-3.3-7.4-4l-13.1-3.2C269.1,164.4,267.6,164.3,266.3,164.3
		L266.3,164.3z M238.8,177.1c-2.3-0.1-4.7,0.4-7,1.3l-12.4,5.3c-7.6,3.2-11.5,11.3-9.7,19c0.2,0.2,0.4,0.6,0.6,1.1
		c4.2,3.7,12-2.8,15.4-6.8c1.7-2,3.4-4,5.1-6.1c2.9-2.9,10-0.7,11.3-4.6c-2.1-4.2-2.2-7.2-1.1-9.2
		C240.3,177.1,239.6,177.1,238.8,177.1L238.8,177.1z M265.2,217.1c-14.9-0.1-30.7,1.3-47.5,4.6l3.2,7.4c3.6,8.5,13.4,12.4,21.8,8.7
		l12.4-5.3c4-1.7,7-4.9,8.6-8.6l5.5,1.4c7,1.7,13.9-1.1,17.8-6.7C280.1,217.7,272.7,217.2,265.2,217.1L265.2,217.1z"/>
	<path class="st2" d="M531.5,349.3c-3.3-11.9-7.4-24.5-10.9-33.2c-5.9-14.8-17.1-33.6-29.7-49.9c-85.9-85.8-196.6-80.7-294.4-41.2
		c-10.5,4.4-23.3,12.2-33,20.1c-14.6,11.8-28,26.9-37.6,42c-3.4,5.3-9.5,17-12.3,23.2c-8.2,18.7-12.9,39.4-13.5,59.8
		c-0.4,14.8,3.5,30.4,11.2,45.2c9.5,18.2,14.6,24.5,21.4,26.2c1.3,0.4,5.7,0.6,10.1,0.7c4.3,0.1,9.4,0.2,11.4,0.5
		c6.9,0.7,30.3,0.7,73.6-0.3c40.6-0.9,47.4-1,124.8-1.8c96.6-1,59-0.3,129.7-1.2C520.6,427.3,541.7,399.8,531.5,349.3L531.5,349.3z"
		/>
	<path class="st1" d="M420.1,206.9c7.1,14,15.6,29.8,23.5,33.5c0.6-0.1,1.1-0.1,1.6-0.1l2.3-10.4c2-8.9-3.5-17.6-12.4-19.6
		L420.1,206.9z"/>
	<path class="st3" d="M186.4,229.8c115-36.1,189.1,10.3,233,73.1l79.1,7c7.6-11.8-19.8-52.1-10-64c12.8-4.2-29.5-8.4-38.1-7.2
		c-0.1,0.1-0.1,0.1-0.2,0.1c0.7,0.1,0.7,0.1-0.1,0c-2.3,1.5-3.1,1.3-6.5,1.6c-19.7-9.1-43-94.3-40.3-37
		c-19.1,7.7-10.9,14.8-28.4,2.4c-1.3-1.3-4.6-2.8-5.7-4.2c-1-1.2-1.8-2.5-2.7-3.8c-4.7-14.1,2.3-19.5-11.3-20.2
		c-2.2-0.1-4.3-0.7-6.4-1c-28.1,8.4-42.2-21.7-56.3-5.8c-13.2,10.9-12.8,26.8-26.7,26c-0.4,0-4.8-3.8-5.5-4.7
		c-0.8-1.1-1.4-2.3-2.2-3.4c3.6-16.9-25-20.4-15.9-2.3c-1.3,3.9-8.4,1.6-11.3,4.6c-1.7,2-3.4,4.1-5.1,6.1c-3.4,4-11.2,10.5-15.4,6.8
		c-3.5-8.6-7.2,21.4-14.2,16.2C183.3,236.3,191.8,222.9,186.4,229.8L186.4,229.8z M446.9,238.8c-0.1,0.1,1.6,0.2,2.2,0.1
		c0.1,0,0.1,0,0.2-0.1c-0.7,0-1.4,0-2.3,0C446.9,238.8,446.9,238.8,446.9,238.8L446.9,238.8z"/>
	<path class="st1" d="M329.2,206c-1.4,0-2.8,0.1-4.1,0.5l-13.1,3.2c-8.9,2.2-9.2,2.9-7.1,11.8c0,0,41.6,7.3,82.5,44.9l-2.6-19.2
		c3.7-8.5-0.2-18.2-8.7-21.9l-12.4-5.3c-6-2.6-12.7-1.3-17.4,2.6l-1-4C343.3,211.1,336.6,206.1,329.2,206L329.2,206z"/>
	<path class="st0" d="M522.8,290.4c-15.7,2.9-16.7,3-13.3,1.4c2.6-1.2,2.3-1.5-4.2-4.6c-8.6-4-33.1-9.9-41.5-10
		c-9.8-0.2-10-0.1-8.6,2.8c1.4,2.9,1.9,3.2-10.4-7.1c-24.1-20.2-36.5-36.9-48.8,16.7c-2.9,8-5.8,13.4-9.7,18.2
		c-11,14.2-12.2,38.2-11.8,46.7c9.7,92.6,134.8,124.6,181.3,38.9c8.5-16.3,9.3-37.9,1.7-53.5c-0.7-1.4-0.2-7.5,1.1-14.6
		C570.2,276.2,550.3,285.6,522.8,290.4L522.8,290.4z"/>
	<path d="M441.5,388.4c-3.8-2.1-6.8-5.7-7.7-9.3c-0.7-2.5-0.5-2.6,0.4-0.4c1,2.6,2.7,5,5.1,6.8c1.6,1.3,2.5,1.6,5.3,2.3
		c2.9,0.7,3.7,0.8,5.9,0.2c2.6-0.5,6.7-2.6,6.9-3.5c0.1-0.2-0.6-1-1.4-1.8c-2-1.7-3.8-4.9-4.3-7.4c-0.4-1.6-0.3-2.1,0.4-3.3
		c1.5-2.6,6.1-3.4,11.5-2.2c4.7,1.1,7.3,2.6,9.1,5.2c1.2,1.8,1.2,2,0.6,3.6c-0.8,2.2-3.8,4.9-6.7,5.9c-1.3,0.4-2.3,0.9-2.3,1
		c-0.2,0.7,1.7,4.1,3.1,5.5c3.6,3.7,8.5,5.2,13.4,4.1c3.2-0.7,5.2-1.8,7.6-4.3c1-1,1.5-1.4,1.3-0.9c-0.8,1.5-3.1,3.6-5.2,4.8
		c-5.6,3.2-12.5,2.6-17.7-1.4c-1.6-1.3-4.7-5.5-5.3-7.5c-0.3-0.8-0.3-0.8-1.3-0.1c-4.1,3.5-9.1,5-14,4.1
		C444.3,389.6,442.5,389,441.5,388.4L441.5,388.4z"/>
	<path d="M426.8,343.7c-1.5,6.4-7.9,10.3-14.2,8.8c-6.3-1.6-10.3-7.9-8.7-14.2c1.5-6.4,7.9-10.3,14.2-8.8
		C424.4,330.9,428.3,337.3,426.8,343.7L426.8,343.7z"/>
	<path d="M533.9,368.9c-1.6,6.4-7.9,10.3-14.2,8.8c-6.4-1.5-10.3-7.9-8.8-14.2s7.9-10.3,14.2-8.8
		C531.5,356.2,535.4,362.6,533.9,368.9L533.9,368.9z"/>
	<path d="M410,292.5c0.3-2.6,2.5-9.3,4-12.1c4.7-8.8,11.9-9.5,20.9-1.9c2,1.7,6.1,6.1,5.9,6.4c0,0.2-0.4,0.2-0.9,0.1
		c-1.3-0.3-6.8,0.2-10.4,1c-5.6,1.3-13.1,4.3-17.9,7.2l-1.9,1.1L410,292.5z M540.8,320c-4.1-6.6-10.7-13-17.9-17.5l-3.4-2l1.4-0.5
		c2.6-0.9,8.6-2,11.6-2.3c3.9-0.3,8.5,0.7,10.2,2.2c2.3,2,3.4,4.5,3.7,8.5c0.1,2.3,0,3.2-1.3,8.4c-0.8,3.4-1.6,6-1.8,6.2
		C543,323.3,542.5,322.8,540.8,320L540.8,320z"/>
	<path d="M484.2,280.8c-1.4-0.4-2.9-0.7-4.4-1c-2.5,5.3-7.4,24.1-8.2,31.1c-0.7,6.7-0.6,11.4,0.4,13c1.1,1.7,3.1-0.2,5.8-5.5
		c3.1-6.2,8.6-28.7,9.2-36.9C486,281.3,485.1,281,484.2,280.8L484.2,280.8z M500.6,285.5c-7.5,7.7-16.7,31.1-13.9,35.7
		c2.8,4.4,14.1-13.7,17.8-28.3c0.5-2.2,0.8-4,1-5.4c-0.2-0.1-0.4-0.2-0.5-0.2C503.9,286.7,502.3,286.1,500.6,285.5L500.6,285.5z
		 M464.6,277.2c-0.4,0-0.7-0.1-1-0.1c-1.3,0-2.5,0-3.4,0c-3.4,6.4-5.3,26-2.5,35.6c1.3,4.3,2.6,5,4.6,2.3
		C466.7,309.1,467.6,284.7,464.6,277.2L464.6,277.2z"/>
	<!-- <path d="M135,514c-1,0-3.1,0.1-6.4,0.4v18.1h-2.1c-1.9,0-3.4,0.1-4.5,0.3c-0.4,0.4-0.6,1.3-0.6,2.7c0,3.4,0.5,6,1.4,7.7
		c1.1,0.6,2.6,1,4.7,1.2c0.2,3.7,0.4,7.6,0.5,11.6c0.2,4.1,0.2,7.2,0.3,9.4c0.1,2.1,0.2,4.2,0.3,6.4c0.2,2.1,0.5,3.7,1,4.9
		c0.4,1.1,1.1,2.1,1.8,2.8c1.7,1.5,5.3,2.3,10.7,2.3c4.2,0,9.4-0.5,15.7-1.3c0.8-1.1,1.3-3.7,1.3-7.9c0-2.5-0.3-4.6-1-6.5l-8.8,2
		l0.5,2c-0.7,0.1-1.7,0.2-2.9,0.2c-3,0-4.9-0.5-5.5-1.6c-0.7-1.1-1-4.2-1-9.2v-6.8c0.1-3.2,0.1-5.9,0.1-8c0.8,0,2.1,0.1,3.8,0.1h3.7
		c2.6,0,4.8-0.1,6.8-0.4c0.4-0.4,0.5-1.3,0.5-2.6c0-3.5-0.5-6.1-1.4-7.7c-1-0.6-5-1-12.1-1.4l-1-18.2C138,514.1,136,514,135,514
		L135,514z M462.4,514c-1,0-3.1,0.1-6.4,0.4v18.1h-2.1c-1.9,0-3.4,0.1-4.5,0.3c-0.4,0.4-0.6,1.3-0.6,2.7c0,3.4,0.5,6,1.4,7.7
		c1.1,0.6,2.7,1,4.7,1.2c0.2,3.7,0.4,7.6,0.5,11.6c0.1,4.1,0.2,7.2,0.2,9.4c0.1,2.1,0.2,4.2,0.3,6.4c0.2,2.1,0.5,3.7,1,4.9
		c0.5,1.1,1.1,2.1,1.9,2.8c1.7,1.5,5.3,2.3,10.7,2.3c4.1,0,9.4-0.5,15.6-1.3c0.8-1.1,1.3-3.7,1.3-7.9c0-2.5-0.3-4.6-1-6.5l-8.8,2
		l0.6,2c-0.8,0.1-1.7,0.2-2.9,0.2c-3,0-4.9-0.5-5.6-1.6c-0.7-1.1-1-4.2-1-9.2v-6.8c0.1-3.2,0.1-5.9,0.1-8c0.8,0,2,0.1,3.7,0.1h3.7
		c2.6,0,4.9-0.1,6.8-0.4c0.4-0.4,0.5-1.3,0.5-2.6c0-3.5-0.5-6.1-1.4-7.7c-1-0.6-5-1-12.1-1.4l-1-18.2
		C465.3,514.1,463.4,514,462.4,514L462.4,514z M264.1,529.1c-1.8,0-3.7,0.2-5.6,0.6l-0.8,2.4c-0.8-0.1-2-0.1-3.5-0.1
		c-4.9,0-9.4,0.8-13.5,2.4c-4,1.6-7.3,3.7-9.8,6.2c-2.5,2.6-4.4,5.3-5.9,8.5c-1.3,3-2,6.1-2,9.2c0,6.5,2.7,12.2,8.2,16.9
		c5.6,4.6,12.7,7,21.4,7c1.7,0,3.5-0.1,5.3-0.2l1.1,1.5c1.7,0.1,3.1,0.2,4.4,0.2c4.7,0,8.5-1.1,11.2-3.2c0.4-3.5,0.7-6,0.7-7.6
		c0-3.8-1.2-7.3-3.5-10.2c-1.7-0.3-3.2-0.5-4.5-0.5c-4.6,0-8.5,1.1-11.7,3.2l0.3,3.4c-3.2,0.8-5.8,1.3-7.8,1.3c-3.3,0-6.2-1-8.6-2.9
		c-2.3-2-3.5-5-3.5-9.1c0-4.9,1.7-8.6,5.1-11.2s7.5-3.9,12.2-3.9c0.8,0,1.8,0.1,3.1,0.2l-0.6,3.7c4.5,1.3,8.3,1.9,11.3,1.9
		c1.7,0,3.4-0.4,5.2-1.1c1.9-0.8,2.8-3.5,2.8-8.2c0-1.6-0.2-4-0.6-7C271.1,530.1,267.6,529.1,264.1,529.1L264.1,529.1z M373.5,529.1
		c-1.8,0-3.7,0.2-5.6,0.6l-0.8,2.4c-0.8-0.1-2-0.1-3.5-0.1c-4.9,0-9.4,0.8-13.5,2.4c-4,1.6-7.3,3.7-9.8,6.2
		c-2.5,2.6-4.4,5.3-5.9,8.5c-1.3,3-2,6.1-2,9.2c0,6.5,2.7,12.2,8.2,16.9c5.6,4.6,12.7,7,21.4,7c1.7,0,3.5-0.1,5.3-0.2l1.1,1.5
		c1.7,0.1,3.1,0.2,4.4,0.2c4.7,0,8.5-1.1,11.2-3.2c0.4-3.5,0.7-6,0.7-7.6c0-3.8-1.2-7.3-3.5-10.2c-1.7-0.3-3.2-0.5-4.5-0.5
		c-4.6,0-8.5,1.1-11.7,3.2l0.2,3.4c-3.2,0.8-5.8,1.3-7.7,1.3c-3.3,0-6.2-1-8.6-2.9c-2.3-2-3.5-5-3.5-9.1c0-4.9,1.7-8.6,5.1-11.2
		c3.4-2.6,7.5-3.9,12.2-3.9c0.7,0,1.8,0.1,3.1,0.2l-0.6,3.7c4.5,1.3,8.3,1.9,11.3,1.9c1.7,0,3.4-0.4,5.2-1.1
		c1.9-0.8,2.8-3.5,2.8-8.2c0-1.6-0.2-4-0.6-7C380.5,530.1,377.1,529.1,373.5,529.1L373.5,529.1z M204.6,531.8
		c-2.4,0-4.3,0.2-5.8,0.5c-1.3,0.4-2.6,1-3.9,2.2c0.1,1.1,0.1,3.4,0.1,6.8c-0.1,0-0.2-0.3-0.4-1c-0.2-0.7-0.5-1.4-1.1-2.3
		c-0.5-1-1.1-1.9-2-2.8c-0.8-1-1.9-1.7-3.4-2.4c-1.4-0.6-3.1-1-4.9-1c-4.1,0-7.7,1.6-10.7,4.7c-3,3.1-5.2,6.8-6.6,11.2
		c-1.3,4.3-2,8.7-2,13.3l0,0c0,5.9,1.3,11,3.8,15.2c2.5,4.1,6.3,6.2,11.2,6.2c1.6,0,4.2-0.8,7.7-2.5c3.6-1.7,5.8-2.6,6.5-2.9
		c-0.2,0.2-0.3,0.7-0.3,1.1c0,0.8,0.2,1.9,0.7,3.1c1.3,0.2,4.7,0.4,10.1,0.4c3,0,5.7-0.3,8.1-1c2.3-0.7,3.8-1.3,4.2-2
		c0.2-0.7,0.3-2.5,0.3-5.3c0-5-0.2-7.8-0.8-8.2c-2.7-0.6-5.5-0.8-8.2-0.8c-0.7,0-1.2,0.1-1.7,0.2c0.6-0.9,0.9-5.5,0.9-13.9
		c0-2.9-0.1-4.5-0.3-4.9c0.8,0.1,1.4,0.2,2.1,0.2c1.4,0,2.9-0.2,4.8-0.5c1.9-0.4,2.9-0.8,3.1-1.3c0.3-0.5,0.4-2.4,0.4-5.5
		c0-3-0.1-4.8-0.4-5.3l-0.2-0.1c-0.1-0.1-0.4-0.2-1-0.4c-0.4-0.2-1.1-0.4-1.8-0.6c-0.8-0.2-1.9-0.4-3.5-0.5
		C208.2,531.8,206.5,531.8,204.6,531.8L204.6,531.8z M431.9,531.8c-2.5,0-4.4,0.2-5.8,0.5c-1.4,0.4-2.6,1-4,2.2
		c0.1,1.1,0.1,3.4,0.1,6.8c-0.1,0-0.2-0.3-0.4-1c-0.2-0.7-0.6-1.4-1.1-2.3c-0.5-1-1.2-1.9-2-2.8c-0.7-1-1.9-1.7-3.4-2.4
		c-1.4-0.6-3-1-4.9-1c-4.1,0-7.7,1.6-10.7,4.7c-3,3.1-5.2,6.8-6.7,11.2c-1.3,4.3-2,8.7-2,13.3c0,5.9,1.3,11,3.7,15.2
		c2.6,4.1,6.3,6.2,11.2,6.2c1.6,0,4.2-0.8,7.8-2.5c3.6-1.7,5.8-2.6,6.5-2.9c-0.2,0.2-0.3,0.7-0.3,1.1c0,0.8,0.2,1.9,0.7,3.1
		c1.3,0.2,4.6,0.4,10.1,0.4c3,0,5.7-0.3,8-1c2.4-0.7,3.8-1.3,4.3-2c0.2-0.7,0.2-2.5,0.2-5.3c0-5-0.2-7.8-0.7-8.2
		c-2.7-0.6-5.5-0.8-8.3-0.8c-0.7,0-1.2,0.1-1.6,0.2c0.5-0.9,0.8-5.5,0.8-13.9c0-2.9-0.1-4.5-0.3-4.9c0.8,0.1,1.5,0.2,2.2,0.2
		c1.3,0,2.9-0.2,4.8-0.5c1.8-0.4,2.9-0.8,3.1-1.3c0.2-0.5,0.4-2.4,0.4-5.5c0-3-0.1-4.8-0.4-5.3l-0.2-0.1c-0.2-0.1-0.5-0.2-1-0.4
		c-0.5-0.2-1.1-0.4-1.9-0.6c-0.8-0.2-1.9-0.4-3.4-0.5C435.5,531.8,433.8,531.8,431.9,531.8L431.9,531.8z M307.3,532.1
		c-7.6,0-13.7,2.8-18.4,8.3c-4.7,5.5-7.1,12.2-7.1,20.2c0,2.6,0.3,5,0.8,7.4c0.6,2.3,1.6,4.6,2.9,6.8c1.4,2.2,3.5,4,6.2,5.3
		c2.8,1.3,6.1,1.9,9.9,1.9c7.2,0,13.1-2.3,17.6-6.9c4.5-4.6,6.8-11.3,6.8-20.2c0-3.1-0.3-5.9-1-8.5c-0.6-2.6-1.6-5-3-7.2
		c-1.3-2.2-3.2-4-5.8-5.2C313.7,532.7,310.8,532.1,307.3,532.1L307.3,532.1z M186.1,545c2.2,0,4.1,0.7,5.8,2c1.8,1.3,2.7,2.6,2.7,4
		v1.1c0,0.4-0.1,1.3-0.2,2.6c-0.1,1.3-0.2,3.2-0.4,5.6c-0.1,2.5-0.2,5.2-0.5,8.1c-0.1,0.5-1,1.2-2.8,1.9c-1.7,0.7-3.2,1-4.6,1
		c-2.4,0-4.7-1.2-7-3.7s-3.3-5.5-3.3-9.1c0-3.3,0.9-6.4,2.7-9.2C180.4,546.5,182.9,545,186.1,545L186.1,545z M413.4,545
		c2.2,0,4.1,0.7,5.9,2c1.8,1.3,2.7,2.6,2.7,4v1.1c0,0.4-0.1,1.3-0.2,2.6c-0.1,1.3-0.2,3.2-0.4,5.6c-0.1,2.5-0.3,5.2-0.5,8.1
		c-0.1,0.5-1.1,1.2-2.8,1.9c-1.7,0.7-3.3,1-4.6,1c-2.5,0-4.8-1.2-7-3.7c-2.2-2.5-3.2-5.5-3.2-9.1c0-3.3,0.9-6.4,2.6-9.2
		C407.7,546.5,410.2,545,413.4,545L413.4,545z M307.1,545.4c2.6,0,4.8,1.1,6.5,3.2c1.7,2.1,2.6,4.6,2.6,7.5c0,1.9-0.3,4-1,6.2
		c-0.7,2.2-1.8,4.3-3.5,6.2c-1.7,1.9-3.8,2.9-6.2,2.9c-2.7,0-5.1-1.1-7.1-3.5c-2-2.3-2.9-5-2.9-8.2c0-3.5,1.1-6.8,3.3-9.8
		C301.2,546.9,303.9,545.4,307.1,545.4L307.1,545.4z"/> -->
</g>
</svg>
